REM DIRINDEX 1\2,1\4,1\3\5,1\3\6,1\3\7
REM DIRNAME cjc083,folder01,folder02,folder03,folder04,folder05,folder06
TITLE ""
FILE "CD1Track05.mp3" MP3
  TRACK 01 AUDIO
    TITLE "0:"
    INDEX 01 00:00:00
  TRACK 02 AUDIO
    TITLE "5:cjc083_0066"
    INDEX 01 00:00:29
  TRACK 03 AUDIO
    TITLE "0:"
    INDEX 01 00:01:58
  TRACK 04 AUDIO
    TITLE "6:cjc083_0067"
    INDEX 01 00:02:22
  TRACK 05 AUDIO
    TITLE "0:"
    INDEX 01 00:03:43
  TRACK 06 AUDIO
    TITLE "5:cjc083_0068"
    INDEX 01 00:04:05
  TRACK 07 AUDIO
    TITLE "0:"
    INDEX 01 00:05:46
  TRACK 08 AUDIO
    TITLE "6:cjc083_0069"
    INDEX 01 00:06:08
  TRACK 09 AUDIO
    TITLE "0:"
    INDEX 01 00:07:58
  TRACK 10 AUDIO
    TITLE "5:cjc083_0070"
    INDEX 01 00:08:28
  TRACK 11 AUDIO
    TITLE "0:"
    INDEX 01 00:09:34
  TRACK 12 AUDIO
    TITLE "6:cjc083_0071"
    INDEX 01 00:10:08
  TRACK 13 AUDIO
    TITLE "0:"
    INDEX 01 00:11:64
  TRACK 14 AUDIO
    TITLE "5:cjc083_0072"
    INDEX 01 00:12:32
  TRACK 15 AUDIO
    TITLE "0:"
    INDEX 01 00:13:59
  TRACK 16 AUDIO
    TITLE "6:cjc083_0073"
    INDEX 01 00:14:27
  TRACK 17 AUDIO
    TITLE "0:"
    INDEX 01 00:16:73
  TRACK 18 AUDIO
    TITLE "5:cjc083_0074"
    INDEX 01 00:17:37
  TRACK 19 AUDIO
    TITLE "0:"
    INDEX 01 00:18:50
  TRACK 20 AUDIO
    TITLE "6:cjc083_0075"
    INDEX 01 00:19:18
  TRACK 21 AUDIO
    TITLE "0:"
    INDEX 01 00:20:43
  TRACK 22 AUDIO
    TITLE "5:cjc083_0076"
    INDEX 01 00:21:08
  TRACK 23 AUDIO
    TITLE "0:"
    INDEX 01 00:22:56
  TRACK 24 AUDIO
    TITLE "6:cjc083_0077"
    INDEX 01 00:23:26
  TRACK 25 AUDIO
    TITLE "0:"
    INDEX 01 00:24:61
  TRACK 26 AUDIO
    TITLE "5:cjc083_0078"
    INDEX 01 00:25:29
  TRACK 27 AUDIO
    TITLE "0:"
    INDEX 01 00:26:34
  TRACK 28 AUDIO
    TITLE "6:cjc083_0079"
    INDEX 01 00:27:06
  TRACK 29 AUDIO
    TITLE "0:"
    INDEX 01 00:28:25
  TRACK 30 AUDIO
    TITLE "5:cjc083_0080"
    INDEX 01 00:28:64
  TRACK 31 AUDIO
    TITLE "0:"
    INDEX 01 00:30:14
  TRACK 32 AUDIO
    TITLE "6:cjc083_0081"
    INDEX 01 00:30:55
  TRACK 33 AUDIO
    TITLE "0:"
    INDEX 01 00:31:65
  TRACK 34 AUDIO
    TITLE "5:cjc083_0082"
    INDEX 01 00:32:35
  TRACK 35 AUDIO
    TITLE "0:"
    INDEX 01 00:33:32
  TRACK 36 AUDIO
    TITLE "6:cjc083_0083"
    INDEX 01 00:34:06
  TRACK 37 AUDIO
    TITLE "0:"
    INDEX 01 00:35:74
  TRACK 38 AUDIO
    TITLE "5:cjc083_0084"
    INDEX 01 00:36:36
  TRACK 39 AUDIO
    TITLE "0:"
    INDEX 01 00:37:40
  TRACK 40 AUDIO
    TITLE "6:cjc083_0085"
    INDEX 01 00:38:12
  TRACK 41 AUDIO
    TITLE "0:"
    INDEX 01 00:39:51
  TRACK 42 AUDIO
    TITLE "5:cjc083_0086"
    INDEX 01 00:40:17
  TRACK 43 AUDIO
    TITLE "0:"
    INDEX 01 00:41:49
  TRACK 44 AUDIO
    TITLE "6:cjc083_0087"
    INDEX 01 00:42:21
  TRACK 45 AUDIO
    TITLE "0:"
    INDEX 01 00:43:52
  TRACK 46 AUDIO
    TITLE "5:cjc083_0088"
    INDEX 01 00:44:22
  TRACK 47 AUDIO
    TITLE "0:"
    INDEX 01 00:45:43
  TRACK 48 AUDIO
    TITLE "6:cjc083_0089"
    INDEX 01 00:46:11
  TRACK 49 AUDIO
    TITLE "0:"
    INDEX 01 00:48:20
  TRACK 50 AUDIO
    TITLE "5:cjc083_0090"
    INDEX 01 00:48:59
  TRACK 51 AUDIO
    TITLE "0:"
    INDEX 01 00:49:65
  TRACK 52 AUDIO
    TITLE "6:cjc083_0091"
    INDEX 01 00:50:31
  TRACK 53 AUDIO
    TITLE "0:"
    INDEX 01 00:51:52
  TRACK 54 AUDIO
    TITLE "5:cjc083_0092"
    INDEX 01 00:52:20
  TRACK 55 AUDIO
    TITLE "0:"
    INDEX 01 00:53:43
  TRACK 56 AUDIO
    TITLE "6:cjc083_0093"
    INDEX 01 00:54:11
  TRACK 57 AUDIO
    TITLE "0:"
    INDEX 01 00:55:26
  TRACK 58 AUDIO
    TITLE "5:cjc083_0094"
    INDEX 01 00:55:65
  TRACK 59 AUDIO
    TITLE "0:"
    INDEX 01 00:57:05
  TRACK 60 AUDIO
    TITLE "6:cjc083_0095"
    INDEX 01 00:57:50
  TRACK 61 AUDIO
    TITLE "0:"
    INDEX 01 00:59:55
  TRACK 62 AUDIO
    TITLE "7:cjc083_0096"
    INDEX 01 01:01:19
  TRACK 63 AUDIO
    TITLE "0:"
    INDEX 01 01:11:74
